<?xml version="1.0" encoding="UTF-8" standalone="no"?>
<!-- Created with Inkscape (http://www.inkscape.org/) -->

<svg
   width="100mm"
   height="30mm"
   viewBox="0 0 100 30"
   version="1.1"
   id="svg5"
   inkscape:version="1.1.1 (1:1.1+202109281949+c3084ef5ed)"
   sodipodi:docname="Logo.svg"
   inkscape:export-filename="/home/daniel/Proyectos/GlobalImagen/pagWeb/galeria/Fuente/Logo1.png"
   inkscape:export-xdpi="96"
   inkscape:export-ydpi="96"
   xmlns:inkscape="http://www.inkscape.org/namespaces/inkscape"
   xmlns:sodipodi="http://sodipodi.sourceforge.net/DTD/sodipodi-0.dtd"
   xmlns="http://www.w3.org/2000/svg"
   xmlns:svg="http://www.w3.org/2000/svg">
  <sodipodi:namedview
     id="namedview7"
     pagecolor="#ffffff"
     bordercolor="#666666"
     borderopacity="1.0"
     inkscape:pageshadow="2"
     inkscape:pageopacity="0.0"
     inkscape:pagecheckerboard="0"
     inkscape:document-units="mm"
     showgrid="false"
     inkscape:zoom="2.5191891"
     inkscape:cx="207.40801"
     inkscape:cy="86.73426"
     inkscape:window-width="1294"
     inkscape:window-height="704"
     inkscape:window-x="72"
     inkscape:window-y="927"
     inkscape:window-maximized="1"
     inkscape:current-layer="layer1"
     inkscape:lockguides="true" />
  <defs
     id="defs2">
    <rect
       x="122.59178"
       y="161.62848"
       width="555.62207"
       height="210.91547"
       id="rect2079" />
  </defs>
  <g
     inkscape:label="Capa 1"
     id="layer1">
    <path
       id="path10478"
       style="font-style:normal;font-weight:normal;font-size:40px;line-height:0.95;font-family:sans-serif;text-align:center;white-space:pre;shape-inside:url(#rect2079);fill:#000080;fill-opacity:1;stroke:none;stroke-width:0.999999"
       d="m 89.242188,17.556641 c -1.190975,0 -2.204761,0.411892 -3.042969,1.238281 -0.790292,0.875 -1.19495,1.872178 -1.210938,2.990234 l -0.24414,17.025391 c -0.01663,1.166664 0.359728,2.187501 1.125,3.0625 0.839225,0.802084 1.841144,1.203125 3.007812,1.203125 h 20.818357 c 1.11806,0 2.09574,-0.401041 2.9336,-1.203125 0.83854,-0.850696 1.26617,-1.871529 1.2832,-3.0625 l 0.15234,-10.644531 H 37.976558 l 0.689534,4.265625 h 71.181568 l -0.0606,4.265625 c -0.009,0.631944 -0.23467,1.142363 -0.67773,1.53125 -0.39446,0.38889 -0.87266,0.582031 -1.43165,0.582031 H 91.015625 c -0.607642,0 -1.101052,-0.193133 -1.484375,-0.582031 -0.382972,-0.413193 -0.571189,-0.923611 -0.5625,-1.53125 l 0.181641,-12.761719 c 0.0083,-0.583334 0.211018,-1.068142 0.605468,-1.457031 0.371188,-0.461806 0.871962,-0.69336 1.503907,-0.69336 h 16.662114 c 0.58329,0 1.06428,0.205946 1.44726,0.619141 0.40728,0.413195 0.6083,0.923611 0.59961,1.53125 h 4.15625 l 0.0312,-2.150391 c 0.0161,-1.142361 -0.38305,-2.139539 -1.19727,-2.990234 -0.81457,-0.826389 -1.78037,-1.238281 -2.89843,-1.238281 z m 32.265622,0 -0.36523,25.519531 h 29.16601 l 0.0605,-4.265625 H 125.6875 l 0.11719,-8.15625 0.1875,-13.097656 z m 40.65039,0 c -1.11806,0 -2.10853,0.40104 -2.9707,1.203125 -0.83821,0.826388 -1.26422,1.834417 -1.28125,3.02539 l -0.24414,17.025391 c -0.0166,1.142362 0.38109,2.139538 1.19531,2.990234 0.81423,0.850696 1.79318,1.275391 2.93555,1.275391 h 20.81836 c 1.16666,0 2.16925,-0.424695 3.00781,-1.275391 0.78995,-0.850696 1.19265,-1.847872 1.20898,-2.990234 l 0.24415,-17.025391 c 0.0167,-1.166667 -0.35743,-2.174697 -1.12305,-3.02539 -0.83922,-0.802085 -1.8303,-1.203125 -2.97266,-1.203125 z m 32.26563,0 -0.36524,25.519531 h 24.6836 c 1.19093,0 2.25437,-0.401041 3.18945,-1.203125 0.88717,-0.850696 1.33844,-1.871529 1.35547,-3.0625 l 0.0918,-6.378906 c 0.0163,-1.142363 -0.4067,-2.139539 -1.26953,-2.990235 -0.50382,-0.461805 -1.07202,-0.78993 -1.70118,-0.984375 0.54584,-0.777778 0.82608,-1.57986 0.83789,-2.40625 l 0.0605,-4.265625 c 0.0163,-1.142361 -0.4195,-2.139539 -1.30664,-2.990234 -0.86318,-0.826389 -1.90192,-1.238281 -3.11719,-1.238281 z m 40.65234,0 c -1.19093,0 -2.20671,0.411892 -3.04492,1.238281 -0.7903,0.875 -1.19299,1.872178 -1.20898,2.990234 l -0.0312,2.150391 h 4.19336 c 0.008,-0.583334 0.20904,-1.068142 0.60351,-1.457031 0.37119,-0.461806 0.87392,-0.69336 1.50586,-0.69336 h 16.66016 c 0.58332,0 1.07904,0.205946 1.48632,0.619141 0.38298,0.413195 0.56924,0.923611 0.56055,1.53125 l -0.0606,4.230469 h -20.8164 c -1.19093,0 -2.20637,0.424695 -3.04492,1.27539 -0.7903,0.875001 -1.193,1.872179 -1.20899,2.990235 l -0.0918,6.378906 c -0.0166,1.166664 0.35778,2.187501 1.12305,3.0625 0.83923,0.802084 1.84315,1.203125 3.00977,1.203125 h 16.66015 c 1.09375,0 2.07339,-0.401041 2.93555,-1.203125 0.83856,-0.850696 1.26422,-1.871529 1.28125,-3.0625 l -0.0605,4.265625 h 4.15625 l 0.30469,-21.291016 c 0.0165,-1.142361 -0.38109,-2.139539 -1.19531,-2.990234 -0.81457,-0.826389 -1.78233,-1.238281 -2.90039,-1.238281 z m 32.26563,0 -0.36524,25.519531 h 20.36482 74.08783 l 0.18082,-4.265625 h -90.08859 l 0.30469,-21.253906 z m -103.16602,4.228515 h 16.66211 c 0.60764,0 1.10139,0.205946 1.48438,0.619141 0.38332,0.388889 0.57153,0.899305 0.5625,1.53125 l -0.18165,12.761719 c -0.008,0.559028 -0.21067,1.043836 -0.60546,1.457031 -0.37081,0.437499 -0.87196,0.65625 -1.50391,0.65625 h -16.66211 c -0.58333,0 -1.06463,-0.218758 -1.44726,-0.65625 -0.40765,-0.388889 -0.60796,-0.873698 -0.59961,-1.457031 l 0.18164,-12.761719 c 0.009,-0.65625 0.22417,-1.166667 0.64257,-1.53125 0.3948,-0.413195 0.88347,-0.619141 1.4668,-0.619141 z m 34.67188,0 h 15.71484 c 0.63194,0 1.16376,0.195095 1.5957,0.583985 0.43125,0.4375 0.6415,0.958767 0.63282,1.566406 l -0.0293,2.115234 c -0.009,0.631945 -0.25833,1.142361 -0.75,1.53125 -0.41875,0.388889 -0.93338,0.583985 -1.54102,0.583985 h -15.71484 z m -0.15235,10.646485 h 17.97461 c 0.60763,0 1.11454,0.218747 1.52149,0.65625 0.45623,0.388888 0.68215,0.873697 0.67382,1.457031 l -0.0312,2.152344 c -0.009,0.631944 -0.24944,1.142363 -0.71679,1.53125 -0.41876,0.38889 -0.93143,0.582031 -1.53907,0.582031 h -17.9746 z m 38.2461,0 h 18.73828 l -0.0312,2.113281 c -0.0174,1.215278 -0.44304,2.236111 -1.28125,3.0625 -0.86217,0.802084 -1.8418,1.203125 -2.93555,1.203125 h -14.58203 c -0.60764,0 -1.103,-0.193133 -1.48633,-0.582031 -0.38298,-0.413193 -0.56924,-0.923611 -0.56055,-1.53125 l 0.0312,-2.152344 c 0.008,-0.559028 0.20675,-1.043838 0.60157,-1.457031 0.37081,-0.437501 0.87392,-0.65625 1.50586,-0.65625 z M 33.550781,55.316406 22.390625,104.66992 h 10.15625 L 43.705078,55.316406 Z m 18.292969,0 -11.158203,49.353514 h 9.332031 l 8.210938,-36.287108 10.978515,36.287108 h 9.183594 L 105.79102,68.382812 97.580078,104.66992 h 9.408202 l 11.1582,-49.353514 H 107.39453 L 76.369141,94.666016 63.341797,55.316406 Z m 94.90039,0 -34.37891,49.353514 h 11.19922 l 6.48828,-9.855467 h 28.67188 l 2.09961,9.855467 h 10.82617 l -12.0625,-49.353514 z m 56.15039,0 c -13.36534,0 -18.02915,2.388871 -20.17969,11.796875 l -5.82031,25.759766 c -0.39575,1.568001 -0.56299,2.98697 -0.58008,4.181641 -0.0865,6.048002 4.29458,7.615232 15.41993,7.615232 h 37.18554 l 6.37696,-28.298826 h -32.03126 l -1.59374,6.945312 h 22.25 l -3.26563,14.335938 h -24.71484 c -6.42133,0 -8.86943,-0.971582 -8.82032,-4.40625 0.009,-0.672 0.0952,-1.492671 0.33203,-2.388672 l 4.86524,-21.654297 c 1.19687,-5.376 3.82992,-6.869141 11.66992,-6.869141 h 34.4961 l 1.59374,-7.017578 z m 45.17188,0 -1.74055,6.900193 1.59685,0.03813 1.61002,-0.01085 2.54874,-7.11e-4 2.75397,0.02761 1.86771,0.06321 h 42.56055 l 1.5918,-7.017578 z m 59.73437,0 -11.1582,49.353514 h 9.70508 l 8.13281,-35.988279 26.06641,35.988279 H 350.625 l 11.16016,-49.353514 h -9.78125 l -8.36719,36.810547 -25.08399,-36.810547 z m -156.07422,6.794922 5.52735,25.908203 h -22.69922 z m 92.83203,8.720703 -7.65039,33.837889 h 52.78907 l 1.51953,-7.017576 H 248.65625 L 252,83.240234 h 25.9082 l 1.43946,-6.644531 h -25.90821 l 1.31836,-5.763672 h -0.73828 -2.42969 -4.66406 z"
       transform="scale(0.26458333)"
       sodipodi:nodetypes="sccccssccccccccssccccsscccccssccccccccscccsssccccssccsccccccccscscccccsscccsccccssccccccssccccccccssccccssccccscsccccscccsccccsccscccssccccsccccccccccccccccccccccccccccsccssccccccscccsccsccccccccccccccccccccccccccccccccccccccc" />
    <path
       style="fill:#000000;stroke-width:1.70284;stroke-linecap:square;stroke-linejoin:bevel;paint-order:fill markers stroke"
       d="M 87.850853,42.631783 C 85.520468,41.957546 84.947971,40.70244 84.947971,36.267679 V 32.35168 H 61.932252 38.916533 l -0.181954,-0.893144 c -0.100075,-0.49123 -0.257336,-1.384374 -0.34947,-1.984766 l -0.167516,-1.091621 h 23.32699 23.32699 l 0.283599,-4.160803 c 0.252518,-3.704758 0.392107,-4.269307 1.273549,-5.15075 0.544469,-0.544471 1.550471,-1.093543 2.235557,-1.22016 0.685081,-0.126618 6.128158,-0.175614 12.095722,-0.10888 l 10.85011,0.121335 1.15772,1.29636 c 0.86836,0.972347 1.15772,1.691654 1.15772,2.877911 v 1.581549 h -1.89064 c -1.57992,0 -1.95503,-0.146782 -2.28248,-0.893144 C 109.36376,21.83966 109.2837,21.831559 99.873063,21.725858 88.54331,21.598602 88.917502,21.46406 88.917502,25.665 v 2.717149 h 12.548168 12.54817 l -0.14686,5.679343 c -0.23606,9.128978 -0.0641,9.022679 -14.516708,8.972123 -5.628863,-0.01969 -10.8036,-0.200515 -11.499419,-0.401832 z m 21.222937,-4.149838 c 0.76763,-0.53767 0.88223,-0.975954 0.88223,-3.374101 V 32.35168 H 99.43676 88.917502 v 2.750318 c 0,4.152998 -0.398104,3.997886 10.26081,3.997886 7.515238,0 9.159868,-0.102702 9.895478,-0.617939 z"
       id="path17513"
       transform="scale(0.26458333)" />
    <path
       style="fill:#000000;stroke-width:1.70284;stroke-linecap:square;stroke-linejoin:bevel;paint-order:fill markers stroke"
       d="m 121.46766,32.208607 c 0,-5.973444 0.11359,-11.689569 0.25243,-12.7025 l 0.25243,-1.841693 h 1.98121 1.9812 l -0.29198,10.717735 -0.29199,10.717735 h 12.34866 12.34866 v 1.984765 1.984766 h -14.29031 -14.29031 z"
       id="path17552"
       transform="scale(0.26458333)" />
    <path
       style="fill:#000000;stroke-width:1.70284;stroke-linecap:square;stroke-linejoin:bevel;paint-order:fill markers stroke"
       d="m 160.51923,42.499025 c -2.45526,-1.068591 -2.53188,-1.420768 -2.53188,-11.637755 0,-10.304635 0.22145,-11.484308 2.36383,-12.592179 1.06864,-0.552615 2.78743,-0.623195 12.72534,-0.522556 l 11.48981,0.116356 1.10006,1.105165 1.10006,1.105165 -0.1175,10.009523 c -0.13104,11.162914 -0.21604,11.528744 -2.89683,12.468075 -2.03049,0.711472 -21.57929,0.667891 -23.23289,-0.05179 z m 21.68226,-4.193048 c 0.73646,-0.736466 0.7939,-1.323177 0.7939,-8.109185 0,-6.120983 -0.10183,-7.417118 -0.62378,-7.939063 -0.93374,-0.933744 -18.8572,-0.933744 -19.79095,0 -0.46007,0.460076 -0.62378,1.433557 -0.62378,3.709304 0,1.697036 -0.1149,4.963331 -0.25532,7.258434 -0.37747,6.169248 -0.90828,5.874417 10.5761,5.874417 8.60065,0 9.17595,-0.04602 9.92383,-0.793907 z"
       id="path17591"
       transform="scale(0.26458333)" />
    <path
       style="fill:#000000;stroke-width:1.70284;stroke-linecap:square;stroke-linejoin:bevel;paint-order:fill markers stroke"
       d="m 194.2482,40.057321 c 0.14236,-1.684092 0.25884,-7.411443 0.25884,-12.727446 v -9.665461 h 11.53135 c 12.35554,0 13.06584,0.10183 14.44498,2.070824 0.70788,1.010643 0.86462,5.965805 0.24063,7.607045 -0.32657,0.858936 -0.1895,1.185981 0.99238,2.367865 l 1.37128,1.371282 v 4.189026 c 0,4.546993 -0.35964,5.821757 -1.94671,6.900248 -0.92287,0.627138 -2.3938,0.713198 -14.09101,0.824419 l -13.06057,0.124184 z m 24.07602,-1.751344 c 1.01813,-1.01813 1.10053,-4.163638 0.13696,-5.228372 C 217.859,32.41221 216.99843,32.35168 208.1404,32.35168 h -9.66383 v 3.374102 3.374102 h 9.52687 c 8.99761,0 9.57098,-0.04411 10.32078,-0.793907 z m -2.01357,-10.969743 c 0.98475,-1.251907 1.08307,-3.566123 0.20478,-4.820057 -0.60664,-0.866095 -0.77725,-0.882231 -9.3284,-0.882231 h -8.71046 v 3.374101 3.374102 h 8.50568 8.50568 z"
       id="path17630"
       transform="scale(0.26458333)" />
    <path
       style="fill:#000000;stroke-width:1.70284;stroke-linecap:square;stroke-linejoin:bevel;paint-order:fill markers stroke"
       d="m 233.40844,42.56463 c -2.31744,-0.813322 -2.88106,-2.438724 -2.5735,-7.421575 0.43138,-6.989017 -0.0499,-6.760906 14.26391,-6.760906 h 10.93592 V 25.665 c 0,-4.151192 0.31226,-4.031054 -10.47737,-4.031054 -9.01712,0 -10.56114,0.20516 -10.56114,1.403302 0,0.435086 -0.51264,0.581463 -2.03639,0.581463 h -2.0364 l 0.20661,-1.833011 c 0.14255,-1.264722 0.53037,-2.156962 1.25089,-2.87791 l 1.04429,-1.044899 11.20531,-0.117415 c 6.16292,-0.06458 11.62255,-0.0127 12.1325,0.115292 0.50995,0.127989 1.35853,0.69814 1.88573,1.267001 l 0.95855,1.034293 v 11.453676 11.453677 h -1.98477 -1.98476 l -0.0224,-2.28248 c -0.0223,-2.268234 -0.0254,-2.274041 -0.49619,-0.930325 -0.26058,0.743686 -0.97762,1.726145 -1.59343,2.183242 -1.0475,0.777535 -1.68694,0.836927 -9.92383,0.921732 -6.15493,0.06337 -9.22224,-0.05608 -10.19352,-0.396954 z m 19.80939,-3.96679 c 1.4525,-0.746465 2.38837,-2.274853 2.67014,-4.360632 l 0.25471,-1.885528 h -10.04576 c -11.69309,0 -11.49762,-0.05803 -11.49762,3.413116 0,3.268573 0.19745,3.336241 9.71444,3.329236 5.51937,-0.0041 8.24169,-0.155767 8.90409,-0.496192 z"
       id="path17669"
       transform="scale(0.26458333)" />
    <path
       style="fill:#000000;stroke-width:1.70284;stroke-linecap:square;stroke-linejoin:bevel;paint-order:fill markers stroke"
       d="m 267.28362,33.840255 c 0.14353,-5.076039 0.26138,-10.792164 0.26188,-12.702501 l 9.1e-4,-3.47334 h 1.98477 1.98476 v 10.717735 10.717735 h 44.85571 44.8557 v 1.984765 1.984766 H 314.125 267.02266 Z"
       id="path17708"
       transform="scale(0.26458333)" />
  </g>
</svg>
